<svg xmlns="http://www.w3.org/2000/svg" xmlns:xlink="http://www.w3.org/1999/xlink" width="715.444" height="587.601" viewBox="0 0 715.444 587.601">
  <defs>
    <linearGradient id="linear-gradient" x1="0.5" y1="1" x2="0.5" gradientUnits="objectBoundingBox">
      <stop offset="0" stop-color="gray" stop-opacity="0.251"/>
      <stop offset="0.54" stop-color="gray" stop-opacity="0.122"/>
      <stop offset="1" stop-color="gray" stop-opacity="0.102"/>
    </linearGradient>
  </defs>
  <g id="coding" transform="translate(0.004 -37.321)">
    <path id="Path_1" data-name="Path 1" d="M264.3,332.5s58.2,58.2,25.346,144.518,56.306,229.99,56.306,229.99-.953-.143-2.724-.453c-119.521-21.1-178.909-157.795-112.414-259.315C255.495,409.452,275.775,365.167,264.3,332.5Z" transform="translate(-160.435 -113.341)" fill="#fff"/>
    <path id="Path_2" data-name="Path 2" d="M276.676,332.5s32.85,71.338,0,129.526-5.63,221.542,81.661,244.982" transform="translate(-172.81 -113.341)" fill="none" stroke="#535461" stroke-miterlimit="10" stroke-width="2"/>
    <path id="Path_3" data-name="Path 3" d="M149.63,628.731s66.407-10.577,72.458,48.938,127.7,67.765,127.7,67.765-.794.54-2.279,1.517c-100.44,65.907-196.449,42-181.974-45.547C170.911,668.855,170.466,636.164,149.63,628.731Z" transform="translate(-149.42 -174.198)" fill="#fff"/>
    <path id="Path_4" data-name="Path 4" d="M149.63,628.731s66.407-10.577,72.458,48.938,127.7,67.765,127.7,67.765-.794.54-2.279,1.517c-100.44,65.907-196.449,42-181.974-45.547C170.911,668.855,170.466,636.164,149.63,628.731Z" transform="translate(-149.42 -174.198)" fill="#f5f5f5" opacity="0.2"/>
    <path id="Path_5" data-name="Path 5" d="M149.63,628.92s51.542,11.315,47.31,58.18,76.547,103.076,152.848,58.522" transform="translate(-149.42 -174.387)" fill="none" stroke="#535461" stroke-miterlimit="10" stroke-width="2"/>
    <path id="Path_6" data-name="Path 6" d="M763.059,376.743a327.343,327.343,0,0,1-4.907-45.031h0A60.348,60.348,0,0,0,715.7,276.62c-4.336-1.334-9.108-2.581-14.38-3.7-46.214-9.815-60.253-1.247-61.849-.119a59.266,59.266,0,0,1-3.518-7.631c-.079-.27-.151-.54-.23-.794a59.166,59.166,0,0,0,15.81-35.645c7.71-7.814,12.213-17.247,12.213-27.4,0-8.735-3.335-16.929-9.171-24.02v-13.8A60.007,60.007,0,0,0,594.569,103.5H589.7a60.007,60.007,0,0,0-60.007,60.007v14.873c-5.3,6.837-8.3,14.642-8.3,22.932,0,9.942,4.32,19.184,11.736,26.9a59.173,59.173,0,0,0,16.469,36.8c.326,2.255.659,4.677.985,7.234l-82.661,17.461s-31.873,1.31-52.408,43.673c-17.366,35.883-51.923,128.073-62.159,155.516h0c-1.85,4.971-2.9,7.821-2.9,7.821s.341-.341.985-.929l-.985,2.676s.5-.508,1.453-1.342c-1.445,11.482-1.652,31.2,13.388,33.652,12.61,2.057,45.1,2.906,69.647,3.248h1.7c16.27.214,28.65.214,28.65.214v-.214H729.272v-2.708a18.19,18.19,0,0,0-1.453-7.147l.365-.445a14.492,14.492,0,0,1,2.739,6.352,6.378,6.378,0,0,1-.127.667l.159-.4a6.8,6.8,0,0,1-.159,2.152s33.867-87.259,33.5-139.365A88.274,88.274,0,0,0,763.059,376.743Zm-211.1-92.706a60.549,60.549,0,0,1-.842-7.528v-.071C551.412,278.891,551.7,281.432,551.96,284.037ZM449.352,471.466v20.8l-13.023,2.787Z" transform="translate(-190.78 -66.179)" fill="url(#linear-gradient)"/>
    <path id="Path_7" data-name="Path 7" d="M488.147,57.57h0a60.007,60.007,0,0,1,60.007,60.007v25.6H428.14v-25.6A60.007,60.007,0,0,1,488.147,57.57Z" transform="translate(-88.13 -11.856)" fill="#e14b5a"/>
    <ellipse id="Ellipse_1" data-name="Ellipse 1" cx="68.4" cy="47" rx="68.4" ry="47" transform="translate(332.038 92.714)" fill="#e14b5a"/>
    <path id="Path_8" data-name="Path 8" d="M597.852,285.98s14.293,74.7,0,94.842,43.673,28.118,43.673,28.118l60-21.821,8.393-53.718s-36.527-20.566-28.959-62.111Z" transform="translate(-241.262 -100.735)" fill="#f7c4a7"/>
    <path id="Path_9" data-name="Path 9" d="M806.441,601.122s3.78,16.365-16.786,19.3a116.292,116.292,0,0,1-36.59-.437L748.53,578.88h47.842Z" transform="translate(-272.76 -164.081)" fill="#f7c4a7"/>
    <path id="Path_10" data-name="Path 10" d="M363.6,574.406s-9.084,36.916,11.482,40.251,96.081,3.359,96.081,3.359V574.342l-34.192,7.305-32.1-30.778Z" transform="translate(-193.075 -158.313)" fill="#f7c4a7"/>
    <path id="Path_11" data-name="Path 11" d="M553.877,319.238,473.511,336.23s-30.635,1.263-50.359,41.966S360.62,535.149,360.62,535.149s36.527-36.932,79.318,2.517l28.538-51.614-6.3,81.835H683.308V529.273s46.159,24.759,42.808,38.607c0,0,39.5-101.782,30.968-148.036a314.59,314.59,0,0,1-4.717-43.276h0a57.966,57.966,0,0,0-40.8-52.94c-4.161-1.278-8.735-2.477-13.817-3.549-47.421-10.069-59.554,0-59.554,0s-9.187,29.888-9.02,43.435c.206,17.414-24.759,28.959-24.759,28.959s-36.932-8.814-38.607-15.945S550.923,327.631,553.877,319.238Z" transform="translate(-192.872 -109.861)" opacity="0.1"/>
    <path id="Path_12" data-name="Path 12" d="M553.875,317.128,473.509,334.12s-30.635,1.263-50.359,41.966-62.54,156.969-62.54,156.969,36.527-36.932,79.318,2.517l28.538-51.614-6.3,81.812H683.306V527.163s46.159,24.759,42.808,38.607c0,0,39.5-101.782,30.968-148.036a314.59,314.59,0,0,1-4.717-43.276h0a57.966,57.966,0,0,0-40.8-52.94c-4.161-1.278-8.735-2.477-13.817-3.549-47.421-10.069-59.554,0-59.554,0s-9.187,29.888-9.02,43.435c.206,17.414-24.759,28.959-24.759,28.959s-36.932-8.814-38.607-15.945S550.921,325.521,553.875,317.128Z" transform="translate(-192.87 -109.426)" fill="#575988"/>
    <path id="Path_13" data-name="Path 13" d="M685.3,305.853a56.8,56.8,0,0,1-2.192-29.793L600,290.742s1.2,6.281,2.557,15.691a57.061,57.061,0,0,0,82.725-.58Z" transform="translate(-242.171 -101.717)" opacity="0.1"/>
    <path id="Path_14" data-name="Path 14" d="M695.668,244.868a57.073,57.073,0,1,1-114.137,1.382c.008-.461.008-.921.008-1.382a57.057,57.057,0,0,1,66.645-56.275h0a57.029,57.029,0,0,1,47.334,52.487Q695.668,242.962,695.668,244.868Z" transform="translate(-238.367 -83.539)" fill="#f7c4a7"/>
    <g id="Group_1" data-name="Group 1" transform="translate(343.163 106.348)" opacity="0.1">
      <path id="Path_15" data-name="Path 15" d="M618.716,193.918l.079-.048a57.026,57.026,0,0,0-37.265,53.543q0,.691,0,1.382a12.705,12.705,0,0,0,5.122-1.231c13.912-6.5,22.234-26.363,25.537-40.219C613.38,202.382,614.5,196.792,618.716,193.918Z" transform="translate(-581.53 -191.138)"/>
      <path id="Path_16" data-name="Path 16" d="M670.692,194.805a56.6,56.6,0,0,0-14.19-4.375,18.311,18.311,0,0,1,10.188,6.4,26.092,26.092,0,0,1,3.121,5.558,57.228,57.228,0,0,0-48,.993c3.581,7.853,14.69,12.133,22.107,15q12.181,4.7,24.616,8.6l-7.337-5.955,16.572,2.636a28.707,28.707,0,0,0-1.159-9.767c3.176,2.557,7.385,3.414,10.831,5.558,6.456,4.074,9.148,11.911,12.665,18.7a12.392,12.392,0,0,0,3.7,4.764,57.1,57.1,0,0,0-33.112-48.112Z" transform="translate(-589.825 -190.43)"/>
    </g>
    <path id="Path_17" data-name="Path 17" d="M618.716,192.288l.079-.048a57.025,57.025,0,0,0-37.265,53.543q0,.691,0,1.382a12.7,12.7,0,0,0,5.122-1.231c13.912-6.5,22.234-26.363,25.537-40.219C613.38,200.784,614.5,195.17,618.716,192.288Z" transform="translate(-238.367 -84.455)" fill="#632652"/>
    <path id="Path_18" data-name="Path 18" d="M670.692,193.185a56.6,56.6,0,0,0-14.19-4.375,18.311,18.311,0,0,1,10.188,6.4,26.092,26.092,0,0,1,3.121,5.558,57.228,57.228,0,0,0-48,.993c3.581,7.853,14.69,12.133,22.107,15q12.181,4.7,24.616,8.6L661.2,219.4l16.572,2.636a28.707,28.707,0,0,0-1.159-9.767c3.176,2.557,7.385,3.414,10.831,5.558,6.456,4.074,9.148,11.911,12.665,18.7a12.392,12.392,0,0,0,3.7,4.764,57.1,57.1,0,0,0-33.112-48.112Z" transform="translate(-246.663 -83.748)" fill="#632652"/>
    <path id="Path_19" data-name="Path 19" d="M573.33,233.734s58.76-73.053,126.739,0l-5.876-16.365s-31.9-46.579-54.552-36.527-44.9,17.207-44.9,17.207Z" transform="translate(-236.679 -81.815)" opacity="0.1"/>
    <path id="Path_20" data-name="Path 20" d="M573.33,232.1s58.76-73.053,126.739,0l-5.876-16.365s-31.9-46.579-54.552-36.527-44.9,17.207-44.9,17.207Z" transform="translate(-236.679 -81.479)" fill="#e14b5a"/>
    <path id="Path_21" data-name="Path 21" d="M509.829,444.38s-12.586,33.573,5.034,63.787-15.524,42.808-15.524,42.808" transform="translate(-221.441 -136.382)" opacity="0.1"/>
    <path id="Path_22" data-name="Path 22" d="M767.874,406.33s21.821,27.7,7.551,52.455S762,543.138,762,543.138" transform="translate(-275.531 -128.545)" opacity="0.1"/>
    <path id="Path_23" data-name="Path 23" d="M333.6,553.3h242.56A20.145,20.145,0,0,1,596.3,573.445H313.46A20.145,20.145,0,0,1,333.6,553.3Z" transform="translate(-64.512 -113.949)" fill="#535461"/>
    <path id="Path_24" data-name="Path 24" d="M361.868,378.89h193.21a30.968,30.968,0,0,1,30.968,30.968V521.995H330.9V409.858A30.968,30.968,0,0,1,361.868,378.89Z" transform="translate(-68.104 -78.03)" fill="#535461"/>
    <circle id="Ellipse_2" data-name="Ellipse 2" cx="15.111" cy="15.111" r="15.111" transform="translate(375.044 363.598)" fill="#fff"/>
    <path id="Path_25" data-name="Path 25" d="M577.56,197.966s57.744-57.712,120.022-1.056" transform="translate(-237.55 -80.287)" fill="none" stroke="#000" stroke-miterlimit="10" stroke-width="1" opacity="0.1"/>
    <rect id="Rectangle_25" data-name="Rectangle 25" width="5.797" height="32.866" transform="translate(468.822 114.003)" fill="#6a5c99"/>
    <path id="Path_26" data-name="Path 26" d="M580.62,170.35h0A19.978,19.978,0,0,1,600.6,190.328v1.286a19.978,19.978,0,0,1-19.978,19.978h0Z" transform="translate(-119.532 -35.083)" fill="#ffd037"/>
    <rect id="Rectangle_26" data-name="Rectangle 26" width="9.02" height="45.11" rx="4.51" transform="translate(457.221 133.338)" fill="#6a5c99"/>
    <rect id="Rectangle_27" data-name="Rectangle 27" width="5.797" height="32.866" transform="translate(330.625 147.512) rotate(180)" fill="#6a5c99"/>
    <path id="Path_27" data-name="Path 27" d="M0,0H0A19.978,19.978,0,0,1,19.978,19.978v1.286A19.978,19.978,0,0,1,0,41.243H0Z" transform="translate(338.359 177.154) rotate(180)" fill="#ffd037"/>
    <rect id="Rectangle_28" data-name="Rectangle 28" width="9.02" height="45.11" rx="4.51" transform="translate(342.226 179.083) rotate(180)" fill="#6a5c99"/>
    <path id="Path_28" data-name="Path 28" d="M701.333,146.054c-7.853-16.326-24.957-36.066-61.825-37.646v-.048h-.445L626,108.979v.064c-36.622,1.683-53.646,21.352-61.476,37.622a84.638,84.638,0,0,0-8.115,35.256l4.51-.111,4.51-.1a76.746,76.746,0,0,1,7.329-31.381C582.7,129.9,601,119.048,627.129,118.04h0l11.554-.643h0c26.148,1,44.451,11.871,54.385,32.286a76.745,76.745,0,0,1,7.345,31.4l4.51.1,4.51.111A84.64,84.64,0,0,0,701.333,146.054Z" transform="translate(-233.194 -67.18)" fill="#ffd037"/>
    <rect id="Rectangle_29" data-name="Rectangle 29" width="615.163" height="165.164" transform="translate(59.026 459.758)" fill="#d6d6e3"/>
    <rect id="Rectangle_30" data-name="Rectangle 30" width="615.163" height="21.44" transform="translate(59.026 479.875)" opacity="0.1"/>
    <rect id="Rectangle_31" data-name="Rectangle 31" width="697.681" height="21.44" transform="translate(17.759 457.376)" fill="#d6d6e3"/>
  </g>
</svg>
