<svg xmlns="http://www.w3.org/2000/svg" width="375.844" height="374.59" viewBox="0 0 375.844 374.59">
  <g id="Web" transform="translate(-74 -67)">
    <path id="Path_2" data-name="Path 2" d="M139.2-116c34.5,48.2,51,105.7,40.3,158.7-10.8,53-48.7,101.6-94.7,117.7-46,16.2-100.1,0-150.4-24.2C-115.8,112-162.2,79.8-182.1,30.7c-19.8-49-13.1-115,21.7-163.3,34.8-48.2,97.6-78.8,155.2-74.7C52.4-203.1,104.8-164.2,139.2-116Z" transform="translate(267.113 274.667)" fill="#5a40ca"/>
    <g id="undraw_online_page_cq94" transform="translate(65 55)">
      <rect id="Rectangle_18" data-name="Rectangle 18" width="253.868" height="137.126" transform="translate(83.657 135.121)" fill="#e6e6e6"/>
      <rect id="Rectangle_19" data-name="Rectangle 19" width="253.868" height="12.663" transform="translate(83.657 124.003)" fill="#3f3d56"/>
      <circle id="Ellipse_11" data-name="Ellipse 11" cx="2.162" cy="2.162" r="2.162" transform="translate(87.672 127.4)" fill="#5a40ca"/>
      <circle id="Ellipse_12" data-name="Ellipse 12" cx="2.162" cy="2.162" r="2.162" transform="translate(93.849 127.4)" fill="#5a40ca"/>
      <circle id="Ellipse_13" data-name="Ellipse 13" cx="2.162" cy="2.162" r="2.162" transform="translate(100.026 127.4)" fill="#5a40ca"/>
      <rect id="Rectangle_20" data-name="Rectangle 20" width="253.868" height="1.544" transform="translate(83.657 135.121)" opacity="0.1"/>
      <rect id="Rectangle_21" data-name="Rectangle 21" width="50.032" height="53.43" transform="translate(98.327 156.894)" fill="#5a40ca" opacity="0.3"/>
      <rect id="Rectangle_22" data-name="Rectangle 22" width="50.032" height="53.43" transform="translate(101.724 153.188)" fill="#5a40ca"/>
      <rect id="Rectangle_23" data-name="Rectangle 23" width="38.464" height="41.076" transform="translate(281.779 156.038)" fill="#5a40ca" opacity="0.3"/>
      <rect id="Rectangle_24" data-name="Rectangle 24" width="38.464" height="41.076" transform="translate(284.391 153.188)" fill="#5a40ca"/>
      <rect id="Rectangle_25" data-name="Rectangle 25" width="38.464" height="41.076" transform="translate(281.779 213.104)" fill="#5a40ca" opacity="0.3"/>
      <rect id="Rectangle_26" data-name="Rectangle 26" width="38.464" height="41.076" transform="translate(284.391 210.255)" fill="#5a40ca"/>
      <rect id="Rectangle_27" data-name="Rectangle 27" width="95.432" height="3.706" transform="translate(169.361 153.188)" fill="#5a40ca"/>
      <rect id="Rectangle_28" data-name="Rectangle 28" width="95.432" height="3.706" transform="translate(169.361 163.998)" fill="#5a40ca"/>
      <rect id="Rectangle_29" data-name="Rectangle 29" width="95.432" height="3.706" transform="translate(169.361 174.807)" fill="#5a40ca"/>
      <rect id="Rectangle_30" data-name="Rectangle 30" width="95.432" height="3.706" transform="translate(169.361 185.617)" fill="#5a40ca"/>
      <rect id="Rectangle_31" data-name="Rectangle 31" width="95.432" height="3.706" transform="translate(169.361 196.426)" fill="#5a40ca"/>
      <rect id="Rectangle_32" data-name="Rectangle 32" width="95.432" height="3.706" transform="translate(169.361 207.236)" fill="#5a40ca"/>
      <rect id="Rectangle_33" data-name="Rectangle 33" width="95.432" height="3.706" transform="translate(169.361 218.045)" fill="#5a40ca"/>
      <rect id="Rectangle_34" data-name="Rectangle 34" width="95.432" height="3.706" transform="translate(169.361 228.855)" fill="#5a40ca"/>
      <rect id="Rectangle_35" data-name="Rectangle 35" width="95.432" height="3.706" transform="translate(169.361 239.664)" fill="#5a40ca"/>
      <rect id="Rectangle_36" data-name="Rectangle 36" width="95.432" height="3.706" transform="translate(169.361 250.474)" fill="#5a40ca"/>
      <path id="Path_70" data-name="Path 70" d="M6.64,0A6.64,6.64,0,1,1,0,6.64,6.64,6.64,0,0,1,6.64,0Z" transform="translate(71.763 169.056)" fill="#f7c4a7"/>
      <path id="Path_35" data-name="Path 35" d="M226.925,406.5s0,7.031-1.172,7.812,9.374,1.562,9.374,1.562v-8.984Z" transform="translate(-152.819 -227.677)" fill="#f7c4a7"/>
      <path id="Path_36" data-name="Path 36" d="M188.015,526.85s7.421,8.593,8.984,8.593,3.125-5.859,3.125-5.859l-7.421-5.468Z" transform="translate(-126.799 -308.969)" fill="#f7c4a7"/>
      <path id="Path_37" data-name="Path 37" d="M308.163,369.223l1.172-8.2s.781-11.327,3.125-8.593.781,8.984.781,8.984,1.172,8.984,0,10.156S308.163,369.223,308.163,369.223Z" transform="translate(-209.84 -190.011)" fill="#f7c4a7"/>
      <path id="Path_38" data-name="Path 38" d="M234.776,546.3l-21.092-1.953s-2.734,12.89-1.953,17.967,1.172,19.53,1.172,19.53.781,26.17,1.953,27.732,5.078,1.172,6.25,1.953,3.125-1.562,3.125-1.953-2.344-.391-1.172-2.734-3.125-8.984-1.953-12.108,3.125-7.421,1.953-8.984.781-21.483.781-21.483,9.765,14.062,9.765,20.311-.781,20.7-1.172,22.264-.781,1.953,0,3.125,1.562,2.344,1.172,2.734,7.031,0,7.031-2.344-.391-2.344.391-4.3,1.172-25.389,1.172-25.389Z" transform="translate(-143.093 -322.955)" fill="#2f2e41"/>
      <path id="Path_39" data-name="Path 39" d="M194.489,422.939l-1.172,2.344s-12.5,3.906-12.89,12.108l10.546,17.577s.781,1.172.391,1.953-.781.391-.391,1.562.391.781.391,1.562-1.172.391,0,.781A24.137,24.137,0,0,0,195.27,462c4.3,1.172,17.186.781,17.186.781l-2.344-22.655,2.344-4.687-3.125-9.374a4.917,4.917,0,0,0-3.125.391c-1.172.781-2.734-.781-2.734-.781S201.519,422.939,194.489,422.939Z" transform="translate(-121.554 -239.04)" fill="#575a89"/>
      <path id="Path_40" data-name="Path 40" d="M267.692,413.709l1.953-.391s7.812-2.344,8.2-4.3a12.467,12.467,0,0,1,2.344-4.3s6.249-1.562,5.859,3.515-1.953,6.64-2.734,7.421-9.374,7.031-10.937,7.031S267.692,413.709,267.692,413.709Z" transform="translate(-181.868 -226.295)" fill="#575a89"/>
      <path id="Path_41" data-name="Path 41" d="M176.978,464.675l-.781,1.562-.391,14.061s-2.344,1.562-1.172,2.344,3.906,4.3,4.687,4.3,5.078-1.953,5.078-2.734-.781-7.812-.781-7.812Z" transform="translate(-117.324 -267.886)" fill="#575a89"/>
      <path id="Path_42" data-name="Path 42" d="M227.881,755.558s0,3.906-.391,4.687-1.172,4.687,1.172,4.687a9.478,9.478,0,0,0,3.906-.781s0-2.344,1.172-2.734,3.906-3.515,2.734-4.3a19.26,19.26,0,0,0-3.515-1.562Z" transform="translate(-153.775 -468.932)" fill="#2f2e41"/>
      <path id="Path_43" data-name="Path 43" d="M281.8,756.637s-2.344,5.468,0,5.859,5.468,0,5.859-.781,1.172-1.562,1.953-1.172,7.421-4.3,5.078-5.078a6.764,6.764,0,0,0-4.3,0l-2.344-1.172Z" transform="translate(-190.901 -468.058)" fill="#2f2e41"/>
      <path id="Path_44" data-name="Path 44" d="M226.335,383.676a.8.8,0,0,0,.318-.088.821.821,0,0,0,.3-.513l.8-2.826c.3-1.072.789-2.325,1.88-2.552a1.774,1.774,0,0,0,.658-.175,1.14,1.14,0,0,0,.357-.882l.342-3.653a6.68,6.68,0,0,0-.164-2.945,4.317,4.317,0,0,0-3.341-2.535,9.4,9.4,0,0,0-4.325.451c-2.126.637-4.328,1.733-5.252,3.752a8,8,0,0,0-.5,3.784,9.467,9.467,0,0,0,.865,3.843,11.519,11.519,0,0,0,1.171,1.721c.659.853,1.468,2.522,2.559,2.84C223.231,384.257,225.089,383.838,226.335,383.676Z" transform="translate(-147.093 -200.661)" fill="#2f2e41"/>
    </g>
  </g>
</svg>
